<svg xmlns="http://www.w3.org/2000/svg" viewBox="0 0 358.7 119" enable-background="new 0 0 358.7 119"><g fill="#fff"><path d="M58.5 0v38.5c-6.8-5.8-13.1-8.2-21.7-8.2C15.1 30.3 0 48 0 73.5c0 25.7 15.4 43.9 37.3 43.9 8.2 0 15.4-2.8 21.2-8.4v6.5h17.7V0H58.5zm-2 89.4c-2.5 6.5-9.6 11-17.5 11-12.4 0-20.5-10.3-20.5-26.3 0-16.6 8.1-27 21-27 7.9 0 15.4 4.9 17.3 11.4 1 3.2 1.4 7.5 1.4 16.5.1 7.1-.4 11.5-1.7 14.4zM154.2 87.5V56.9c0-10-1-13.8-5.4-18.4-5.1-5.4-14.4-8.4-25.9-8.4-11.7 0-23.5 2.8-34.8 8.6l7.4 14.2c11.7-5.1 17.5-6.5 25.6-6.5 10.9 0 15.2 3.9 15.4 13.3v2.6c-14.2 1.4-18.9 1.9-24.5 3C94 68.8 85.6 76.7 85.6 90c0 15.8 13.7 27.7 31.7 27.7 9.6 0 17.2-3.5 22.6-10.3 1.8 5.8 6.5 9.3 14.4 10.3l8.9-13.7c-8.1-3.4-9-5.1-9-16.5zm-17.8 1.6c0 4.9-.7 6.8-3.2 8.9-3.2 2.8-8.6 4.7-13.1 4.7-8.6 0-15.6-5.6-15.6-12.4 0-5.6 3.7-8.9 11.9-10.9 5.4-1.2 10-1.7 20-2.8v12.5zM193.8 86.8c0 10.3 2.1 12.8 10.9 12.8 3 0 6.3-.3 10-1l2.3 15.6c-5.8 1.6-12.3 2.4-17.9 2.4-16.5 0-22.9-6.8-22.9-23.8V47.3H161V32h15.2V6.3L193.8 0v32h21.9v15.2h-21.9v39.6zM253.8 86.8c0 10.3 2.1 12.8 10.9 12.8 3 0 6.3-.3 10-1l2.3 15.6c-5.8 1.6-12.2 2.4-17.9 2.4-16.5 0-22.9-6.8-22.9-23.8V47.3H221V32h15.2V6.3L253.8 0v32h21.9v15.2h-21.9v39.6zM317.5 29.9c-23.3 0-38.9 17.7-38.9 44.3 0 25.7 16.5 43.6 40.3 43.6 23.3 0 39.6-18 39.6-43.6 0-26.2-16.6-44.3-41-44.3zm.7 70.6c-13 0-21.5-10.7-21.5-26.6 0-15.9 8.8-27 21.7-27 12.6 0 21 10.7 21 27 0 15.9-8.6 26.6-21.2 26.6z"/></g></svg>